<svg width="20" height="24" viewBox="0 0 20 24" fill="none" xmlns="http://www.w3.org/2000/svg">
<path d="M18.8902 2.53961H17.146V0.794051C17.146 0.56061 17.0433 0.339133 16.8652 0.188164C16.6871 0.0373015 16.4515 -0.027596 16.2215 0.0108343L0.978038 2.55041C0.595111 2.61425 0.314453 2.94541 0.314453 3.33363V23.206C0.314453 23.6445 0.66996 24 1.10847 24H18.8901C19.3287 24 19.6841 23.6445 19.6841 23.206V3.33363C19.6842 2.89512 19.3287 2.53961 18.8902 2.53961ZM1.90259 4.00632L15.558 1.73131V19.995L1.90259 22.2689V4.00632ZM18.0962 22.412H10.7111L16.4824 21.4509C16.8653 21.3872 17.1461 21.0559 17.1461 20.6677V4.12764H18.0963V22.412H18.0962Z" fill="#93191E"/>
</svg>
